<?xml version="1.0" standalone="yes"?>
<svg xmlns="http://www.w3.org/2000/svg" width="802" height="1002">
<path style="fill:#000000; stroke:none;" d="M326 171L327 172L326 171z"/>
<path style="fill:#444444; stroke:none;" d="M327 171L328 172L327 171z"/>
<path style="fill:#000000; stroke:none;" d="M324 172L325 173L324 172M321 174L319 177L321 174M329 174L330 175L329 174M316 178L315 180L316 178M333 180L334 181L333 180M310.667 181.333L311.333 181.667L310.667 181.333M303 182L304 183L303 182M295 183L296 184L295 183M334 183L335 184L334 183M290 185L291 186L290 185M334 185L335 186L334 185z"/>
<path style="fill:#666666; stroke:none;" d="M287 189L288 190L287 189z"/>
<path style="fill:#000000; stroke:none;" d="M288 189L289 190L288 189M293.667 190.333L294.333 190.667L293.667 190.333M297 191L298 192L297 191M299 192L300 193L299 192M338 192L342 196L338 192M304 195L313 204L304 195M343 197L345 199L343 197M350 203L350 204L355 204L350 203M355 205L356 206L355 205M317 208L318 209L317 208M356.333 208.667L356.667 209.333L356.333 208.667M315 212L316 213L315 212M314 214L315 215L314 214M362 216L364 218L362 216M313 217L314 218L313 217M312.333 220.667L312.667 221.333L312.333 220.667M364.333 220.667L364.667 221.333L364.333 220.667M311 224L311 228L312 228L311 224M368 225L376 233L368 225M314 230L315 231L314 230M376 234L377 235L376 234M316 236L317 237L316 236M377 237L378 238L377 237M317 239L318 240L317 239M378 239L379 240L378 239M379 242L380 243L379 242M317 245L318 246L317 245M381 245L383 247L381 245M316 248L317 249L316 248M385 249L386 250L385 249M315.333 251.667L315.667 252.333L315.333 251.667M316 254L317 255L316 254M317 257L318 258L317 257M318 259L320 261L318 259M320 262L321 263L320 262M386 263L387 264L386 263M321 264L322 265L321 264M322 266L323 267L322 266M323 268L324 269L323 268M381 268L380 270L381 268M388 268L389 269L388 268M324 270L325 271L324 270M386 270L387 271L386 270M379.333 271.667L379.667 272.333L379.333 271.667M388 272L389 273L388 272M325 273L326 274L325 273z"/>
<path style="fill:#222222; stroke:none;" d="M387 273L388 274L387 273z"/>
<path style="fill:#000000; stroke:none;" d="M380 274L381 275L380 274M381 276L382 277L381 276M326.333 278.667L326.667 279.333L326.333 278.667M381 278L382 279L381 278M407 278L411 282L407 278M328 280L329 281L328 280M381.333 280.667L381.667 281.333L381.333 280.667M404 280L403 282L404 280M330 281L331 282L330 281M332 282L334 284L332 282M401 282L400 284L401 282M380.333 284.667L380.667 285.333L380.333 284.667M412 284L413 285L412 284M413 286L414 287L413 286M399 287L399 292L400 292L399 287M379.333 288.667L379.667 289.333L379.333 288.667M381.667 291.333L382.333 291.667L381.667 291.333M389 291L390 292L389 291M393 292L394 293L393 292M415.333 292.667L415.667 293.333L415.333 292.667M335 293L336 294L335 293M395 293L396 294L395 293M333 294L334 295L333 294M331 295L332 296L331 295M416 296L416 299L417 299L416 296M330 297L331 298L330 297M329 299L330 300L329 299M328 301L329 302L328 301M417.333 302.667L417.667 303.333L417.333 302.667M327 303L328 304L327 303M326 305L327 306L326 305M324 307L325 308L324 307M418 307L419 308L418 307M319.333 309.667L319.667 310.333L319.333 309.667M419 311L420 312L419 311M320 314L321 315L320 314M420 314L421 315L420 314M321 316L323 318L321 316M421.333 317.667L421.667 318.333L421.333 317.667M323 319L325 321L323 319M327 321L328 322L327 321M422.333 321.667L422.667 322.333L422.333 321.667M329.667 322.333L330.333 322.667L329.667 322.333M423 325L424 326L423 325M333 326L334 327L333 326M334 328L335 329L334 328M424.333 328.667L424.667 329.333L424.333 328.667M337 331L337 332L340 332L337 331M344 332L344 333L347 333L344 332M350.667 333.333L351.333 333.667L350.667 333.333M425 333L425 337L426 337L425 333M357 334L357 335L360 335L357 334M365 335L366 336L365 335M369 337L370 338L369 337M400.667 337.333L401.333 337.667L400.667 337.333M406 338L407 339L406 338M425 338L426 339L425 338M370 339L373 341L373 340L370 339M374.667 341.333L375.333 341.667L374.667 341.333M382 341L383 342L382 341M394 342L395 343L394 342M427 344L428 345L427 344M384 345L384 349L385 349L384 345M391 345L390 347L391 345M429 347L430 348L429 347M406 348L406 351L407 351L406 348M387.333 351.667L387.667 352.333L387.333 351.667M431 352L431 355L432 355L431 352M387 356L388 357L387 356M405.333 356.667L405.667 357.333L405.333 356.667M384 357L387 359L387 358L384 357M432.333 358.667L432.667 359.333L432.333 358.667z"/>
<path style="fill:#444444; stroke:none;" d="M384 359L385 360L384 359z"/>
<path style="fill:#000000; stroke:none;" d="M405 359L405 382L406 382L405 359M433.333 364.667L433.667 365.333L433.333 364.667M435 368L439 372L435 368M439 374L439 377L440 377L439 374M440 379L440 382L441 382L440 379M441.333 385.667L441.667 386.333L441.333 385.667M404 386L404 389L405 389L404 386M443 389L444 390L443 389M445 391L456 402L445 391M405 393L406 394L405 393M406 395L407 396L406 395M407 397L409 399L407 397M409 400L410 401L409 400M456 403L457 404L456 403M411 404L412 405L411 404M457 405L458 406L457 405M412 407L412 413L413 413L412 407M460 410L460 411L463 412L460 410M397 411L396 413L397 411M394 413L395 414L394 413M403.667 413.333L404.333 413.667L403.667 413.333M406 414L406 415L410 415L406 414M393 416L394 417L393 416M463.333 417.667L463.667 418.333L463.333 417.667M392 420L393 421L392 420M391.333 423.667L391.667 424.333L391.333 423.667M462 424L463 425L462 424M463 426L464 427L463 426M464 428L465 429L464 428M391 431L391 434L392 434L391 431M466 432L467 433L466 432M470 435L471 436L470 435M474 438L474 439L478 441L478 440L474 438M392 439L392 442L393 442L392 439M480 442L482 444L480 442M482 445L483 446L482 445M393 448L394 449L393 448M487 449L488 450L487 449M393 450L393 454L394 454L393 450M490 450L491 451L490 450z"/>
<path style="fill:#222222; stroke:none;" d="M492 451L493 452L492 451z"/>
<path style="fill:#666666; stroke:none;" d="M495 454L496 455L495 454z"/>
<path style="fill:#000000; stroke:none;" d="M393 455L394 456L393 455M496.333 456.667L496.667 457.333L496.333 456.667M393.333 459.667L393.667 460.333L393.333 459.667M497 459L498 460L497 459M351 460L351 461L357 461L351 460M340.667 461.333L341.333 461.667L340.667 461.333M498 461L499 462L498 461M357 462L358 463L357 462M393 462L394 463L393 462M499 463L500 464L499 463M336 464L336 467L337 467L336 464M358 464L359 465L358 464M392 465L393 466L392 465M501 466L502 467L501 466M391 467L392 468L391 467M363.667 468.333L364.333 468.667L363.667 468.333M502 468L504 470L502 468M367.667 469.333L368.333 469.667L367.667 469.333M390 469L389 471L390 469M370 470L371 471L370 470M504 471L506 473L504 471M373 472L374 473L373 472M388 472L389 473L388 472M336 473L337 474L336 473M387 474L388 475L387 474M506 474L508 476L506 474M377 475L378 476L377 475M334 476L335 477L334 476M386 476L387 477L386 476M381 477L382 478L381 477M508 477L509 478L508 477M384 478L385 479L384 478M509 479L510 480L509 479M335 481L337 483L335 481M510 481L511 482L510 481M338 483L340 485L338 483M511 483L512 484L511 483M372 490L372 491L376 491L372 490M378 490L379 491L378 490M513.333 490.667L513.667 491.333L513.333 490.667M367 491L363 496L367 491M341.333 494.667L341.667 495.333L341.333 494.667M380 494L381 495L380 494M361 496L362 497L361 496M342 497L344 499L342 497M359 497L360 498L359 497M357 498L358 499L357 498M381 498L382 499L381 498M354.667 499.333L355.333 499.667L354.667 499.333M351.667 500.333L352.333 500.667L351.667 500.333M382.333 500.667L382.667 501.333L382.333 500.667z"/>
<path style="fill:#444444; stroke:none;" d="M345 501L346 502L345 501z"/>
<path style="fill:#000000; stroke:none;" d="M346.667 501.333L347.333 501.667L346.667 501.333M384 506L385 507L384 506M514 506L514 509L515 509L514 506M385.333 509.667L385.667 510.333L385.333 509.667M385 512L385 515L386 515L385 512M438 514L439 515L438 514M436 515L437 516L436 515M440 515L441 516L440 515z"/>
<path style="fill:#222222; stroke:none;" d="M516 515L517 516L516 515z"/>
<path style="fill:#000000; stroke:none;" d="M384 516L385 517L384 516M441 517L442 518L441 517M433 518L432 520L433 518M517 518L518 519L517 518M382 519L383 520L382 519z"/>
<path style="fill:#222222; stroke:none;" d="M442 519L443 520L442 519z"/>
<path style="fill:#000000; stroke:none;" d="M430 520L429 522L430 520M518 520L519 521L518 520M381 521L383 524L381 521M427 522L428 523L427 522M519 522L520 523L519 522M425 523L426 524L425 523M442 523L441 525L442 523M423 524L424 525L423 524M520 524L521 525L520 524M421 525L420 527L421 525M418 527L415 531L418 527M521 527L522 528L521 527M441 529L441 533L442 533L441 529M522 529L523 530L522 529M523 531L524 532L523 531M524 533L525 534L524 533M525.333 535.667L525.667 536.333L525.333 535.667M384 537L386 539L384 537z"/>
<path style="fill:#444444; stroke:none;" d="M413 538L414 539L413 538z"/>
<path style="fill:#000000; stroke:none;" d="M442 538L442 541L443 541L442 538M526 538L527 539L526 538M387 540L389 542L387 540M412 541L410 544L412 541M527.333 541.667L527.667 542.333L527.333 541.667M408 544L409 545L408 544M405 545L406 546L405 545M528 545L528 548L529 548L528 545M391 546L392 547L391 546M443 546L444 547L443 546M392 548L393 549L392 548M402 548L403 549L402 548M444 548L446 550L444 548M393 550L394 551L393 550M401 551L402 552L401 551M446 551L449 554L446 551M394 553L395 554L394 553M395.333 555.667L395.667 556.333L395.333 555.667M449 555L450 556L449 555M400.333 556.667L400.667 557.333L400.333 556.667M528 556L528 560L529 560L528 556M451.333 558.667L451.667 559.333L451.333 558.667M396 559L400 561L400 560L396 559M452 562L453 563L452 562M527 565L527 570L528 570L527 565M453 567L454 568L453 567M454 570L455 571L454 570M526 573L525 575L526 573M451 578L452 579L451 578M450 580L451 581L450 580M519.333 581.667L519.667 582.333L519.333 581.667M449 582L449 587L450 587L449 582M520 584L521 585L520 584M521 586L522 587L521 586z"/>
<path style="fill:#888888; stroke:none;" d="M526 588L527 589L526 588z"/>
<path style="fill:#000000; stroke:none;" d="M522 589L523 590L522 589z"/>
<path style="fill:#cccccc; stroke:none;" d="M526 589L527 590L526 589z"/>
<path style="fill:#000000; stroke:none;" d="M526 590L526 597L527 597L526 590M451 592L452 593L451 592M452 595L454 597L452 595M455 597L457 599L455 597M458.667 599.333L459.333 599.667L458.667 599.333M527 599L528 600L527 599M462 600L463 601L462 600M466.667 601.333L467.333 601.667L466.667 601.333M528.333 603.667L528.667 604.333L528.333 603.667M470.333 604.667L470.667 605.333L470.333 604.667M529 607L530 608L529 607M530 612L530 619L531 619L530 612M469 615L470 616L469 615M471 616L472 617L471 616M473.333 619.667L473.667 620.333L473.333 619.667M473 623L474 624L473 623M529 623L530 624L529 623M475 625L477 627L475 625M477 628L477 634L478 634L477 628M527 629L528 630L527 629M524 633L525 634L524 633M524 636L525 637L524 636M476 640L477 641L476 640M524 640L525 641L524 640M476 642L477 643L476 642M523.333 644.667L523.667 645.333L523.333 644.667M475.333 646.667L475.667 647.333L475.333 646.667M522.333 649.667L522.667 650.333L522.333 649.667M474 654L474 663L475 663L474 654z"/>
<path style="fill:#222222; stroke:none;" d="M521 654L522 655L521 654z"/>
<path style="fill:#000000; stroke:none;" d="M521 655L522 656L521 655z"/>
<path style="fill:#666666; stroke:none;" d="M518 660L519 661L518 660z"/>
<path style="fill:#000000; stroke:none;" d="M518.333 661.667L518.667 662.333L518.333 661.667M474 668L475 669L474 668M518 672L519 673L518 672z"/>
<path style="fill:#222222; stroke:none;" d="M517 674L518 675L517 674z"/>
<path style="fill:#000000; stroke:none;" d="M514 680L515 681L514 680M473 681L473 684L474 684L473 681M513 686L514 687L513 686M472.333 688.667L472.667 689.333L472.333 688.667M511 688L512 689L511 688M509 690L510 691L509 690M508 698L508 701L509 701L508 698M472 699L472 707L473 707L472 699M507 702L508 703L507 702M505 705L505 708L506 708L505 705M505 709L504 713L505 713L505 709M471.333 710.667L471.667 711.333L471.333 710.667M473 714L476 717L473 714M501 714L502 715L501 714M479 719L481 721L479 719M496.333 719.667L496.667 720.333L496.333 719.667M482 721L483 722L482 721M485 723L486 724L485 723M495 723L496 724L495 723M489 725L490 726L489 725M491 726L492 727L491 726z"/>
<path style="fill:#222222; stroke:none;" d="M494 727L495 728L494 727z"/>
</svg>
